# xmcd
#
# Track frame offsets:
# 150
# 15497
# 28857
# 45320
# 61407
# 73852
# 86207
# 102155
# 114517
# 129740
# 143555
#
# Disc length: 2161 seconds
#
#
# Revision: 0
# Processed by: cddbd v1.5.1PL0 Copyright (c) Steve Scherf et al.
# Submitted via: FreeRIP 2.60 
#
DISCID=94086f0b
DTITLE=Bonnie Bramlett - Lady's Choice
DYEAR=1976
DGENRE=Soul
TTITLE0=Think (About It)
TTITLE1=Hold On, I'm Coming
TTITLE2=You Send Me
TTITLE3=Never Gonna Give You Up
TTITLE4=Let's Go Get Stoned
TTITLE5=Two Steps from the Blues
TTITLE6=If I Were Your Woman
TTITLE7=Ain't That Lovin' You Baby
TTITLE8=You Really Got a Hold On Me
TTITLE9=Thrill on the Hill
TTITLE10=Forever Young
EXTD=Bonnie Bramlett sang with her husband in the duo "Delaney and Bonnie". She was the only white "Ikette" to perform with Ike and Tina Turner
EXTT0=
EXTT1=
EXTT2=
EXTT3=
EXTT4=
EXTT5=
EXTT6=
EXTT7=
EXTT8=
EXTT9=
EXTT10=
PLAYORDER=
